ModPlug Tracker  IT
|...........|...........|A-3........|A-1........|A-1........|A-2........|A-2........|E-3........|...........|...........|...........|...........|...........|...........|...........|...........|...        
|...........|...........|...........|...........|...........|...........|...........|...........|...........|...........|...........|...........|...........|...........|...........|...........|...        
|...........|...........|...........|...........|...........|...........|...........|...........|...........|...........|...........|...........|...........|...........|...........|...........|...        
|...........|...........|...........|...........|...........|...........|...........|...........|...........|...........|...........|...........|...........|...........|...........|...........|...        
|...........|...........|...........|...........|...........|...........|...........|...........|...........|...........|...........|...........|...........|...........|...........|...........|...        
|...........|...........|...........|...........|...........|...........|...........|...........|...........|...........|...........|...........|...........|...........|...........|...........|...        
|...........|...........|...........|...........|...........|...........|...........|...........|...........|...........|...........|...........|...........|...........|...........|...........|...        
|...........|...........|...........|...........|...........|...........|...........|...........|...........|...........|...........|...........|...........|...........|...........|...........|...        
|...........|...........|...........|...........|...........|...........|...........|...........|...........|...........|...........|...........|...........|...........|...........|...........|...        
|...........|...........|...........|...........|...........|...........|...........|...........|...........|...........|...........|...........|...........|...........|...........|...........|...        
|...........|...........|...........|...........|...........|...........|...........|...........|...........|...........|...........|...........|...........|...........|...........|...........|...        
|...........|...........|...........|...........|...........|...........|...........|...........|...........|...........|...........|...........|...........|...........|...........|...........|...        
|...........|...........|...........|...........|...........|...........|...........|...........|...........|...........|...........|...........|...........|...........|...........|...........|...        
|...........|...........|...........|...........|...........|...........|...........|...........|...........|...........|...........|...........|...........|...........|...........|...........|...        
|...........|...........|...........|...........|...........|...........|...........|...........|...........|...........|...........|...........|...........|...........|...........|...........|...        
|...........|...........|...........|...........|...........|...........|...........|...........|...........|...........|...........|...........|...........|...........|...........|...........|...        
|...........|...........|...........|...........|...........|...........|...........|...........|...........|...........|...........|...........|...........|...........|...........|...........|...        
|...........|...........|...........|...........|...........|...........|...........|...........|...........|...........|...........|...........|...........|...........|...........|...........|...        
|...........|...........|...........|...........|...........|...........|...........|...........|...........|...........|...........|...........|...........|...........|...........|...........|...        
|...........|...........|...........|...........|...........|...........|...........|...........|...........|...........|...........|...........|...........|...........|...........|...........|...        
|...........|...........|...........|...........|...........|...........|...........|...........|...........|...........|...........|...........|...........|...........|...........|...........|...        
|...........|...........|...........|...........|...........|...........|...........|...........|...........|...........|...........|...........|...........|...........|...........|...........|...        
|...........|...........|...........|...........|...........|...........|...........|...........|...........|...........|...........|...........|...........|...........|...........|...........|...        
|...........|...........|...........|...........|...........|...........|...........|...........|...........|...........|...........|...........|...........|...........|...........|...........|...        
|...........|...........|...........|...........|...........|...........|...........|...........|...........|...........|...........|...........|...........|...........|...........|...........|...        
|...........|...........|...........|...........|...........|...........|...........|...........|...........|...........|...........|...........|...........|...........|...........|...........|...        
|...........|...........|...........|...........|...........|...........|...........|...........|...........|...........|...........|...........|...........|...........|...........|...........|...        
|...........|...........|...........|...........|...........|...........|...........|...........|...........|...........|...........|...........|...........|...........|...........|...........|...        
|...........|...........|...........|...........|...........|...........|...........|...........|...........|...........|...........|...........|...........|...........|...........|...........|...        
|...........|...........|...........|...........|...........|...........|...........|...........|...........|...........|...........|...........|...........|...........|...........|...........|...        
|...........|...........|...........|...........|...........|...........|...........|...........|...........|...........|...........|...........|...........|...........|...........|...........|...        
|...........|...........|===........|...........|...........|...........|...........|...........|...........|...........|...........|...........|...........|...........|...........|...........|B-2        
|B-219......|...........|...........|...........|...........|...........|...........|...........|...........|...........|...........|...........|...........|...........|...........|...........|...        
|...........|...........|...........|...........|...........|...........|...........|...........|...........|...........|...........|...........|...........|...........|...........|...........|...        
|...........|...........|...........|...........|...........|...........|...........|...........|...........|...........|...........|...........|...........|...........|...........|...........|...        
|...........|...........|...........|...........|...........|...........|...........|...........|...........|...........|...........|...........|...........|...........|...........|...........|E-3        
|E-321......|A-7........|...........|...........|...........|...........|...........|...........|...........|...........|...........|...........|...........|...........|...........|...........|...        
|...........|...........|...........|...........|...........|...........|...........|...........|...........|...........|...........|...........|...........|...........|...........|...........|...        
|...........|...........|...........|...........|...........|...........|...........|...........|...........|...........|...........|...........|...........|...........|...........|...........|...        
|...........|...........|...........|...........|===........|...........|...........|...........|...........|...........|...........|...........|...........|...........|...........|...........|...        
|...........|...........|...........|...........|...........|...........|...........|...........|...........|...........|...........|...........|...........|...........|...........|...........|...        
|...........|===........|...........|...........|...........|...........|...........|...........|...........|...........|...........|...........|...........|...........|...........|...........|...        
|...........|...........|...........|...........|...........|...........|...........|...........|...........|...........|...........|...........|...........|...........|...........|...........|...        
|...........|...........|...........|...........|...........|...........|...........|...........|...........|...........|...........|...........|...........|...........|...........|...........|E-3        
|E-321......|...........|...........|...........|...........|...........|...........|...........|F#3........|F#3........|...........|...........|...........|...........|...........|...........|...        
|...........|...........|...........|...........|...........|...........|...........|...........|...........|...........|...........|...........|...........|...........|...........|...........|...        
|...........|...........|...........|...........|...........|...........|...........|...........|...........|...........|...........|...........|...........|...........|...........|...........|...        
|...........|...........|...........|...........|...........|...........|===........|...........|===........|===........|...........|...........|...........|...........|...........|...........|E-3        
|E-321......|D-6........|A-5........|...........|...........|...........|...........|...........|G#3........|G#3........|...........|...........|...........|...........|...........|...........|...        
|...........|...........|...........|...........|...........|...........|...........|...........|...........|...........|...........|...........|...........|...........|...........|...........|...        
|...........|...........|...........|...........|...........|...........|...........|...........|...........|...........|...........|...........|...........|...........|...........|...........|...        
|...........|...........|...........|...........|...........|...........|...........|...........|...........|...........|...........|...........|...........|...........|...........|...........|...        
|...........|...........|...........|...........|...........|...........|...........|...........|...........|...........|...........|...........|...........|...........|...........|...........|...        
|...........|===........|===........|...........|...........|...........|...........|...........|===........|===........|...........|...........|...........|...........|...........|...........|...        
|...........|...........|G-5........|...........|...........|...........|...........|...........|A-3........|A-3........|...........|...........|...........|...........|...........|...........|...        
|...........|...........|...........|...........|...........|...........|...........|===........|...........|...........|...........|...........|...........|...........|...........|...........|...        
|...........|...........|...........|...........|...........|...........|...........|...........|...........|...........|...........|...........|...........|...........|...........|...........|...        
|...........|...........|...........|...........|...........|...........|...........|...........|...........|...........|...........|...........|...........|...........|...........|...........|...        
|...........|...........|...........|...........|...........|...........|...........|...........|...........|...........|...........|...........|...........|...........|...........|...........|...        
|...........|...........|===........|...........|...........|...........|...........|...........|===........|===........|...........|...........|...........|...........|...........|...........|B-2        
|B-219......|D-6........|D-5........|...........|...........|...........|...........|...........|B-3........|B-3........|...........|...........|...........|...........|...........|...........|...        
|...........|...........|...........|...........|...........|...........|...........|...........|...........|...........|...........|...........|...........|...........|...........|...........|...        
|...........|...........|...........|...........|...........|...........|...........|...........|...........|...........|...........|...........|...........|...........|...........|...........|...        
|...........|===........|===........|===........|...........|===........|...........|...........|===........|===........|...........|...........|...........|...........|...........|...........|D#A        
