ModPlug Tracker  IT
|B-219......|A-7........|A-3..v12...|A-1........|A-1........|A-2........|A-2........|E-3........|F#3........|F#3........|F#3........|...........|...........|...........|...........|...........|...        
|...........|...........|...........|...........|...........|...........|...........|...........|...........|...........|...........|...........|...........|...........|...........|...........|...        
|...........|...........|...........|...........|...........|...........|...........|...........|...........|...........|...........|...........|...........|...........|...........|...........|...        
|...........|...........|...........|...........|...........|...........|...........|...........|...........|...........|...........|...........|...........|...........|...........|...........|...        
|...........|...........|...........|...........|...........|...........|...........|...........|...........|...........|...........|...........|...........|...........|...........|...........|...        
|...........|===........|...........|...........|...........|...........|...........|...........|...........|...........|...........|...........|...........|...........|...........|...........|...        
|...........|...........|...........|...........|...........|...........|...........|...........|...........|...........|...........|...........|...........|...........|...........|...........|...        
|...........|...........|...........|...........|...........|...........|...........|...........|...........|...........|...........|...........|...........|...........|...........|...........|...        
|...........|...........|...........|...........|...........|...........|...........|...........|...........|...........|...........|...........|...........|...........|...........|...........|...        
|...........|...........|...........|...........|...........|...........|...........|...........|...........|...........|...........|...........|...........|...........|...........|...........|...        
|...........|...........|...........|...........|...........|...........|...........|...........|...........|...........|...........|...........|...........|...........|...........|...........|...        
|...........|...........|...........|...........|...........|...........|...........|...........|...........|...........|...........|...........|...........|...........|...........|...........|...        
|...........|...........|...........|...........|...........|...........|...........|...........|...........|...........|...........|...........|...........|...........|...........|...........|...        
|...........|...........|...........|...........|...........|...........|...........|...........|...........|...........|...........|...........|...........|...........|...........|...........|...        
|...........|...........|...........|...........|...........|...........|...........|...........|...........|...........|...........|...........|...........|...........|...........|...........|...        
|...........|...........|...........|...........|...........|...........|...........|...........|...........|...........|...........|...........|...........|...........|...........|...........|...        
|...........|...........|...........|...........|...........|...........|...........|...........|...........|...........|...........|...........|...........|...........|...........|...........|...        
|...........|...........|...........|...........|...........|...........|...........|...........|...........|...........|...........|...........|...........|...........|...........|...........|...        
|...........|...........|...........|...........|...........|...........|...........|...........|...........|...........|...........|...........|...........|...........|...........|...........|...        
|...........|...........|...........|...........|...........|...........|...........|...........|...........|...........|...........|...........|...........|...........|...........|...........|...        
|...........|...........|...........|...........|...........|...........|...........|...........|...........|...........|...........|...........|...........|...........|...........|...........|...        
|...........|...........|...........|...........|...........|...........|...........|...........|...........|...........|...........|...........|...........|...........|...........|...........|...        
|...........|...........|...........|...........|...........|...........|...........|...........|...........|...........|...........|...........|...........|...........|...........|...........|...        
|...........|...........|...........|...........|...........|...........|...........|...........|...........|...........|...........|...........|...........|...........|...........|...........|...        
|...........|...........|...........|...........|...........|...........|...........|...........|...........|...........|...........|...........|...........|...........|...........|...........|...        
|...........|...........|...........|...........|...........|...........|...........|...........|...........|...........|...........|...........|...........|...........|...........|...........|...        
|...........|...........|...........|...........|...........|...........|...........|...........|...........|...........|...........|...........|...........|...........|...........|...........|...        
|...........|...........|...........|...........|...........|...........|...........|...........|...........|...........|...........|...........|...........|...........|...........|...........|...        
|...........|...........|...........|...........|...........|...........|...........|...........|...........|...........|...........|...........|...........|...........|...........|...........|...        
|...........|...........|...........|...........|...........|...........|...........|...........|...........|...........|...........|...........|...........|...........|...........|...........|...        
|...........|...........|...........|...........|...........|...........|...........|...........|...........|...........|...........|...........|...........|...........|...........|...........|...        
|...........|...........|===........|...........|...........|...........|...........|...........|...........|...........|...........|...........|...........|...........|...........|...........|B-2        
|B-219......|A-5..v12...|...........|...........|...........|...........|...........|...........|...........|...........|...........|...........|...........|...........|...........|...........|...        
|...........|.....v16...|...........|...........|...........|...........|...........|...........|...........|...........|...........|...........|...........|...........|...........|...........|...        
|...........|.....v20...|...........|...........|...........|...........|...........|...........|...........|...........|...........|...........|...........|...........|...........|...........|...        
|...........|===........|...........|...........|...........|...........|...........|...........|...........|...........|...........|...........|...........|...........|...........|...........|E-3        
|E-321......|A-7........|...........|...........|...........|...........|...........|...........|...........|...........|...........|...........|...........|...........|...........|...........|...        
|...........|...........|...........|...........|...........|...........|...........|...........|...........|...........|...........|...........|...........|...........|...........|...........|...        
|...........|...........|...........|...........|...........|...........|...........|...........|...........|...........|...........|...........|...........|...........|...........|...........|...        
|...........|...........|...........|...........|===........|...........|...........|...........|===........|===........|...........|...........|...........|...........|...........|...........|B-3        
|B-325......|...........|...........|...........|...........|...........|...........|...........|...........|...........|...........|...........|...........|...........|...........|...........|...        
|...........|===........|...........|...........|...........|...........|...........|...........|...........|...........|...........|...........|...........|...........|...........|...........|...        
|...........|...........|...........|...........|...........|...........|...........|...........|...........|...........|...........|...........|...........|...........|...........|...........|...        
|...........|...........|...........|...........|...........|...........|...........|...........|...........|...........|...........|...........|...........|...........|...........|...........|A-3        
|A-324......|...........|...........|...........|...........|...........|...........|...........|F#3........|F#3........|...........|...........|...........|...........|...........|...........|...        
|...........|...........|...........|...........|...........|...........|...........|...........|...........|...........|...........|...........|...........|...........|...........|...........|...        
|...........|...........|...........|...........|...........|...........|...........|...........|...........|...........|...........|...........|...........|...........|...........|...........|...        
|...........|...........|...........|...........|...........|...........|===........|...........|===........|===........|===........|...........|===........|...........|...........|...........|E-3        
|E-321......|D-6........|A-5........|...........|...........|...........|...........|...........|G#3........|G#3........|...........|...........|...........|...........|...........|...........|...        
|...........|...........|...........|...........|...........|...........|...........|...........|...........|...........|...........|...........|...........|...........|...........|...........|...        
|...........|...........|...........|...........|...........|...........|...........|...........|...........|...........|...........|...........|...........|...........|...........|...........|...        
|...........|...........|...........|...........|...........|...........|...........|...........|...........|...........|...........|...........|...........|...........|...........|...........|...        
|...........|...........|...........|...........|...........|...........|...........|...........|...........|...........|...........|...........|...........|...........|...........|...........|...        
|...........|===........|===........|...........|...........|...........|...........|...........|===........|===........|...........|...........|...........|...........|...........|...........|B-3        
|B-325......|...........|G-5........|...........|...........|...........|...........|...........|A-3........|A-3........|...........|...........|...........|...........|...........|...........|...        
|...........|...........|...........|...........|...........|...........|...........|===........|...........|...........|...........|...........|...........|...........|...........|...........|...        
|...........|...........|...........|...........|...........|...........|...........|...........|...........|...........|...........|...........|...........|...........|...........|...........|...        
|...........|...........|...........|...........|...........|...........|...........|...........|...........|...........|...........|...........|...........|...........|...........|...........|...        
|...........|...........|...........|...........|...........|...........|...........|...........|...........|...........|...........|...........|...........|...........|...........|...........|...        
|...........|...........|===........|...........|...........|...........|...........|...........|===........|===........|...........|...........|...........|...........|...........|...........|G-3        
|G-323......|...........|D-5........|...........|...........|...........|...........|...........|B-3........|B-3........|...........|...........|...........|...........|...........|...........|...        
|...........|...........|...........|...........|...........|...........|...........|...........|...........|...........|...........|...........|...........|...........|...........|...........|...        
|...........|...........|...........|...........|...........|...........|...........|...........|...........|...........|...........|...........|...........|...........|...........|...........|...        
|...........|...........|===........|===........|...........|===........|...........|...........|===........|===........|...........|...........|...........|...........|...........|...........|D#A        
